{
date = "2013-05-07 17:01:52 +0000";
designer = "Shinji Pons";
designerURL = www.shinjipons.com;
familyName = "Modulo 42";
fontMaster = (
{
alignmentZones = (
"{128, 129}",
"{128, 129}",
"{128, 129}",
"{0, -2}",
"{0, -2}"
);
ascender = 128;
capHeight = 128;
customParameters = (
{
name = familyName;
value = "Modulo 42";
}
);
descender = 0;
guideLines = (
{
position = "{-25, 43}";
},
{
angle = 90;
position = "{93, 139}";
},
{
angle = 90;
position = "{51, 135}";
},
{
position = "{-22, 85}";
},
{
angle = 90;
position = "{50, 143}";
},
{
angle = 90;
position = "{94, 136}";
},
{
position = "{-22, 86}";
},
{
position = "{-24, 42}";
},
{
angle = 90;
position = "{136, -22}";
},
{
angle = 90;
position = "{8, -30}";
}
);
horizontalStems = (
42
);
id = "940E2F63-624A-4C3D-A909-721782B4CF41";
userData = {
GSOffsetHorizontal = "-1";
GSOffsetMakeStroke = 1;
GSOffsetPosition = 0;
GSOffsetProportional = 1;
GSOffsetVertical = 10;
};
verticalStems = (
42
);
weightValue = 42;
widthValue = 128;
xHeight = 128;
}
);
glyphs = (
{
glyphname = A;
lastChange = "2013-06-11 19:24:21 +0200";
layers = (
{
background = {
paths = (
{
closed = 1;
nodes = (
"136 128 LINE",
"136 0 LINE",
"8 0 LINE",
"8 85 LINE",
"93 85 LINE",
"93 43 LINE",
"50 43 LINE",
"50 42 LINE",
"94 42 LINE",
"94 86 LINE",
"8 86 LINE",
"8 128 LINE"
);
}
);
};
guideLines = (
{
position = "{-9, 59}";
showMeasurement = 1;
},
{
angle = 90;
position = "{73, -10}";
showMeasurement = 1;
}
);
layerId = "940E2F63-624A-4C3D-A909-721782B4CF41";
name = Regular;
paths = (
{
closed = 1;
nodes = (
"134 126 LINE",
"134 2 LINE",
"10 2 LINE",
"10 83 LINE",
"91 83 LINE",
"91 45 LINE",
"48 45 LINE",
"48 40 LINE",
"96 40 LINE",
"96 88 LINE",
"10 88 LINE",
"10 126 LINE"
);
},
{
closed = 1;
nodes = (
"8 86 LINE",
"94 86 LINE",
"94 42 LINE",
"50 42 LINE",
"50 43 LINE",
"93 43 LINE",
"93 85 LINE",
"8 85 LINE",
"8 0 LINE",
"136 0 LINE",
"136 128 LINE",
"8 128 LINE"
);
}
);
width = 144;
}
);
unicode = 0041;
},
{
glyphname = B;
lastChange = "2013-06-11 19:25:17 +0200";
layers = (
{
layerId = "940E2F63-624A-4C3D-A909-721782B4CF41";
name = Regular;
paths = (
{
closed = 1;
nodes = (
"10 126 LINE",
"10 2 LINE",
"48 2 LINE",
"48 88 LINE",
"96 88 LINE",
"96 83 LINE",
"53 83 LINE",
"53 45 LINE",
"96 45 LINE",
"96 40 LINE",
"53 40 LINE",
"53 2 LINE",
"134 2 LINE",
"134 126 LINE"
);
},
{
closed = 1;
nodes = (
"136 0 LINE",
"51 0 LINE",
"51 42 LINE",
"94 42 LINE",
"94 43 LINE",
"51 43 LINE",
"51 85 LINE",
"94 85 LINE",
"94 86 LINE",
"50 86 LINE",
"50 0 LINE",
"8 0 LINE",
"8 128 LINE",
"136 128 LINE"
);
}
);
width = 144;
}
);
unicode = 0042;
},
{
glyphname = C;
lastChange = "2013-06-11 19:25:21 +0200";
layers = (
{
layerId = "940E2F63-624A-4C3D-A909-721782B4CF41";
name = Regular;
paths = (
{
closed = 1;
nodes = (
"10 2 LINE",
"10 126 LINE",
"134 126 LINE",
"134 88 LINE",
"48 88 LINE",
"48 40 LINE",
"134 40 LINE",
"134 2 LINE"
);
},
{
closed = 1;
nodes = (
"136 42 LINE",
"50 42 LINE",
"50 86 LINE",
"136 86 LINE",
"136 128 LINE",
"8 128 LINE",
"8 0 LINE",
"136 0 LINE"
);
}
);
width = 144;
}
);
unicode = 0043;
},
{
glyphname = D;
lastChange = "2013-06-11 19:25:24 +0200";
layers = (
{
layerId = "940E2F63-624A-4C3D-A909-721782B4CF41";
name = Regular;
paths = (
{
closed = 1;
nodes = (
"134 126 LINE",
"10 126 LINE",
"10 88 LINE",
"96 88 LINE",
"96 40 LINE",
"48 40 LINE",
"48 83 LINE",
"10 83 LINE",
"10 2 LINE",
"134 2 LINE"
);
},
{
closed = 1;
nodes = (
"8 0 LINE",
"8 85 LINE",
"50 85 LINE",
"50 42 LINE",
"94 42 LINE",
"94 86 LINE",
"8 86 LINE",
"8 128 LINE",
"136 128 LINE",
"136 0 LINE"
);
}
);
width = 144;
}
);
unicode = 0044;
},
{
glyphname = E;
lastChange = "2013-06-11 19:25:27 +0200";
layers = (
{
layerId = "940E2F63-624A-4C3D-A909-721782B4CF41";
name = Regular;
paths = (
{
closed = 1;
nodes = (
"134 45 LINE",
"134 126 LINE",
"53 126 LINE",
"53 88 LINE",
"96 88 LINE",
"96 83 LINE",
"48 83 LINE",
"48 126 LINE",
"10 126 LINE",
"10 2 LINE",
"134 2 LINE",
"134 40 LINE",
"48 40 LINE",
"48 45 LINE"
);
},
{
closed = 1;
nodes = (
"50 42 LINE",
"136 42 LINE",
"136 0 LINE",
"8 0 LINE",
"8 128 LINE",
"50 128 LINE",
"50 85 LINE",
"94 85 LINE",
"94 86 LINE",
"51 86 LINE",
"51 128 LINE",
"136 128 LINE",
"136 43 LINE",
"50 43 LINE"
);
}
);
width = 144;
}
);
unicode = 0045;
},
{
glyphname = F;
lastChange = "2013-06-11 19:25:29 +0200";
layers = (
{
layerId = "940E2F63-624A-4C3D-A909-721782B4CF41";
name = Regular;
paths = (
{
closed = 1;
nodes = (
"48 2 LINE",
"48 45 LINE",
"134 45 LINE",
"134 83 LINE",
"48 83 LINE",
"48 88 LINE",
"134 88 LINE",
"134 126 LINE",
"10 126 LINE",
"10 2 LINE"
);
},
{
closed = 1;
nodes = (
"8 128 LINE",
"136 128 LINE",
"136 86 LINE",
"50 86 LINE",
"50 85 LINE",
"136 85 LINE",
"136 43 LINE",
"50 43 LINE",
"50 0 LINE",
"8 0 LINE"
);
}
);
width = 144;
}
);
unicode = 0046;
},
{
glyphname = H;
lastChange = "2013-06-11 19:25:34 +0200";
layers = (
{
layerId = "940E2F63-624A-4C3D-A909-721782B4CF41";
name = Regular;
paths = (
{
closed = 1;
nodes = (
"96 126 LINE",
"96 83 LINE",
"48 83 LINE",
"48 126 LINE",
"10 126 LINE",
"10 2 LINE",
"48 2 LINE",
"48 45 LINE",
"96 45 LINE",
"96 2 LINE",
"134 2 LINE",
"134 126 LINE"
);
},
{
closed = 1;
nodes = (
"136 0 LINE",
"94 0 LINE",
"94 43 LINE",
"50 43 LINE",
"50 0 LINE",
"8 0 LINE",
"8 128 LINE",
"50 128 LINE",
"50 85 LINE",
"94 85 LINE",
"94 128 LINE",
"136 128 LINE"
);
}
);
width = 144;
}
);
unicode = 0048;
},
{
glyphname = J;
lastChange = "2013-06-11 19:25:37 +0200";
layers = (
{
layerId = "940E2F63-624A-4C3D-A909-721782B4CF41";
name = Regular;
paths = (
{
closed = 1;
nodes = (
"53 126 LINE",
"53 88 LINE",
"96 88 LINE",
"96 40 LINE",
"10 40 LINE",
"10 2 LINE",
"134 2 LINE",
"134 126 LINE"
);
},
{
closed = 1;
nodes = (
"136 0 LINE",
"8 0 LINE",
"8 42 LINE",
"94 42 LINE",
"94 86 LINE",
"51 86 LINE",
"51 128 LINE",
"136 128 LINE"
);
}
);
width = 144;
}
);
unicode = 004A;
},
{
glyphname = K;
lastChange = "2013-06-11 19:25:38 +0200";
layers = (
{
layerId = "940E2F63-624A-4C3D-A909-721782B4CF41";
name = Regular;
paths = (
{
closed = 1;
nodes = (
"134 88 LINE",
"134 126 LINE",
"53 126 LINE",
"53 83 LINE",
"48 83 LINE",
"48 126 LINE",
"10 126 LINE",
"10 2 LINE",
"48 2 LINE",
"48 45 LINE",
"96 45 LINE",
"96 2 LINE",
"134 2 LINE",
"134 83 LINE",
"91 83 LINE",
"91 88 LINE"
);
},
{
closed = 1;
nodes = (
"93 85 LINE",
"136 85 LINE",
"136 0 LINE",
"94 0 LINE",
"94 43 LINE",
"50 43 LINE",
"50 0 LINE",
"8 0 LINE",
"8 128 LINE",
"50 128 LINE",
"50 85 LINE",
"51 85 LINE",
"51 128 LINE",
"136 128 LINE",
"136 86 LINE",
"93 86 LINE"
);
}
);
width = 144;
}
);
unicode = 004B;
},
{
glyphname = L;
lastChange = "2013-06-11 19:25:40 +0200";
layers = (
{
layerId = "940E2F63-624A-4C3D-A909-721782B4CF41";
name = Regular;
paths = (
{
closed = 1;
nodes = (
"48 40 LINE",
"48 126 LINE",
"10 126 LINE",
"10 2 LINE",
"134 2 LINE",
"134 40 LINE"
);
},
{
closed = 1;
nodes = (
"136 0 LINE",
"8 0 LINE",
"8 128 LINE",
"50 128 LINE",
"50 42 LINE",
"136 42 LINE"
);
}
);
width = 144;
}
);
unicode = 004C;
},
{
glyphname = M;
lastChange = "2013-06-11 19:25:42 +0200";
layers = (
{
layerId = "940E2F63-624A-4C3D-A909-721782B4CF41";
name = Regular;
paths = (
{
closed = 1;
nodes = (
"10 126 LINE",
"10 2 LINE",
"48 2 LINE",
"48 88 LINE",
"53 88 LINE",
"53 2 LINE",
"91 2 LINE",
"91 88 LINE",
"96 88 LINE",
"96 2 LINE",
"134 2 LINE",
"134 126 LINE"
);
},
{
closed = 1;
nodes = (
"136 0 LINE",
"94 0 LINE",
"94 86 LINE",
"93 86 LINE",
"93 0 LINE",
"51 0 LINE",
"51 86 LINE",
"50 86 LINE",
"50 0 LINE",
"8 0 LINE",
"8 128 LINE",
"136 128 LINE"
);
}
);
width = 144;
}
);
unicode = 004D;
},
{
glyphname = N;
lastChange = "2013-06-11 19:25:45 +0200";
layers = (
{
layerId = "940E2F63-624A-4C3D-A909-721782B4CF41";
name = Regular;
paths = (
{
closed = 1;
nodes = (
"96 126 LINE",
"96 40 LINE",
"91 40 LINE",
"91 126 LINE",
"10 126 LINE",
"10 2 LINE",
"48 2 LINE",
"48 88 LINE",
"53 88 LINE",
"53 2 LINE",
"134 2 LINE",
"134 126 LINE"
);
},
{
closed = 1;
nodes = (
"136 0 LINE",
"51 0 LINE",
"51 86 LINE",
"50 86 LINE",
"50 0 LINE",
"8 0 LINE",
"8 128 LINE",
"93 128 LINE",
"93 42 LINE",
"94 42 LINE",
"94 128 LINE",
"136 128 LINE"
);
}
);
width = 144;
}
);
unicode = 004E;
},
{
glyphname = O;
lastChange = "2013-06-11 19:25:46 +0200";
layers = (
{
layerId = "940E2F63-624A-4C3D-A909-721782B4CF41";
name = Regular;
paths = (
{
closed = 1;
nodes = (
"10 126 LINE",
"10 2 LINE",
"134 2 LINE",
"134 126 LINE"
);
},
{
closed = 1;
nodes = (
"136 0 LINE",
"8 0 LINE",
"8 128 LINE",
"136 128 LINE"
);
},
{
closed = 1;
nodes = (
"96 40 LINE",
"48 40 LINE",
"48 88 LINE",
"96 88 LINE"
);
},
{
closed = 1;
nodes = (
"50 86 LINE",
"50 42 LINE",
"94 42 LINE",
"94 86 LINE"
);
}
);
width = 144;
}
);
unicode = 004F;
},
{
glyphname = P;
lastChange = "2013-06-11 19:25:50 +0200";
layers = (
{
layerId = "940E2F63-624A-4C3D-A909-721782B4CF41";
name = Regular;
paths = (
{
closed = 1;
nodes = (
"10 2 LINE",
"10 126 LINE",
"134 126 LINE",
"134 45 LINE",
"53 45 LINE",
"53 83 LINE",
"96 83 LINE",
"96 88 LINE",
"48 88 LINE",
"48 2 LINE"
);
},
{
closed = 1;
nodes = (
"50 86 LINE",
"94 86 LINE",
"94 85 LINE",
"51 85 LINE",
"51 43 LINE",
"136 43 LINE",
"136 128 LINE",
"8 128 LINE",
"8 0 LINE",
"50 0 LINE"
);
}
);
width = 144;
}
);
unicode = 0050;
},
{
glyphname = Q;
lastChange = "2013-06-11 19:25:54 +0200";
layers = (
{
layerId = "940E2F63-624A-4C3D-A909-721782B4CF41";
name = Regular;
paths = (
{
closed = 1;
nodes = (
"10 126 LINE",
"10 2 LINE",
"134 2 LINE",
"134 126 LINE"
);
},
{
closed = 1;
nodes = (
"136 0 LINE",
"8 0 LINE",
"8 128 LINE",
"136 128 LINE"
);
},
{
closed = 1;
nodes = (
"96 40 LINE",
"91 40 LINE",
"91 83 LINE",
"53 83 LINE",
"53 40 LINE",
"48 40 LINE",
"48 88 LINE",
"96 88 LINE"
);
},
{
closed = 1;
nodes = (
"50 86 LINE",
"50 42 LINE",
"51 42 LINE",
"51 85 LINE",
"93 85 LINE",
"93 42 LINE",
"94 42 LINE",
"94 86 LINE"
);
}
);
width = 144;
}
);
unicode = 0051;
},
{
glyphname = R;
lastChange = "2013-06-11 19:25:59 +0200";
layers = (
{
layerId = "940E2F63-624A-4C3D-A909-721782B4CF41";
name = Regular;
paths = (
{
closed = 1;
nodes = (
"134 45 LINE",
"134 126 LINE",
"10 126 LINE",
"10 2 LINE",
"48 2 LINE",
"48 88 LINE",
"96 88 LINE",
"96 83 LINE",
"53 83 LINE",
"53 2 LINE",
"134 2 LINE",
"134 40 LINE",
"91 40 LINE",
"91 45 LINE"
);
},
{
closed = 1;
nodes = (
"93 42 LINE",
"136 42 LINE",
"136 0 LINE",
"51 0 LINE",
"51 85 LINE",
"94 85 LINE",
"94 86 LINE",
"50 86 LINE",
"50 0 LINE",
"8 0 LINE",
"8 128 LINE",
"136 128 LINE",
"136 43 LINE",
"93 43 LINE"
);
}
);
width = 144;
}
);
unicode = 0052;
},
{
glyphname = T;
lastChange = "2013-06-11 19:26:02 +0200";
layers = (
{
layerId = "940E2F63-624A-4C3D-A909-721782B4CF41";
name = Regular;
paths = (
{
closed = 1;
nodes = (
"10 126 LINE",
"10 88 LINE",
"53 88 LINE",
"53 2 LINE",
"91 2 LINE",
"91 88 LINE",
"134 88 LINE",
"134 126 LINE"
);
},
{
closed = 1;
nodes = (
"136 86 LINE",
"93 86 LINE",
"93 0 LINE",
"51 0 LINE",
"51 86 LINE",
"8 86 LINE",
"8 128 LINE",
"136 128 LINE"
);
}
);
width = 144;
}
);
unicode = 0054;
},
{
glyphname = V;
lastChange = "2013-06-11 19:26:05 +0200";
layers = (
{
layerId = "940E2F63-624A-4C3D-A909-721782B4CF41";
name = Regular;
paths = (
{
closed = 1;
nodes = (
"10 2 LINE",
"91 2 LINE",
"91 45 LINE",
"134 45 LINE",
"134 126 LINE",
"96 126 LINE",
"96 83 LINE",
"53 83 LINE",
"53 40 LINE",
"48 40 LINE",
"48 126 LINE",
"10 126 LINE"
);
},
{
closed = 1;
nodes = (
"50 128 LINE",
"50 42 LINE",
"51 42 LINE",
"51 85 LINE",
"94 85 LINE",
"94 128 LINE",
"136 128 LINE",
"136 43 LINE",
"93 43 LINE",
"93 0 LINE",
"8 0 LINE",
"8 128 LINE"
);
}
);
width = 144;
}
);
unicode = 0056;
},
{
glyphname = X;
lastChange = "2013-06-11 19:26:08 +0200";
layers = (
{
layerId = "940E2F63-624A-4C3D-A909-721782B4CF41";
name = Regular;
paths = (
{
closed = 1;
nodes = (
"134 88 LINE",
"134 126 LINE",
"10 126 LINE",
"10 45 LINE",
"48 45 LINE",
"48 88 LINE",
"53 88 LINE",
"53 40 LINE",
"10 40 LINE",
"10 2 LINE",
"134 2 LINE",
"134 83 LINE",
"96 83 LINE",
"96 40 LINE",
"91 40 LINE",
"91 88 LINE"
);
},
{
closed = 1;
nodes = (
"93 42 LINE",
"94 42 LINE",
"94 85 LINE",
"136 85 LINE",
"136 0 LINE",
"8 0 LINE",
"8 42 LINE",
"51 42 LINE",
"51 86 LINE",
"50 86 LINE",
"50 43 LINE",
"8 43 LINE",
"8 128 LINE",
"136 128 LINE",
"136 86 LINE",
"93 86 LINE"
);
}
);
width = 144;
}
);
unicode = 0058;
},
{
glyphname = Y;
lastChange = "2013-06-11 19:26:10 +0200";
layers = (
{
layerId = "940E2F63-624A-4C3D-A909-721782B4CF41";
name = Regular;
paths = (
{
closed = 1;
nodes = (
"96 126 LINE",
"96 83 LINE",
"48 83 LINE",
"48 126 LINE",
"10 126 LINE",
"10 45 LINE",
"96 45 LINE",
"96 40 LINE",
"10 40 LINE",
"10 2 LINE",
"134 2 LINE",
"134 126 LINE"
);
},
{
closed = 1;
nodes = (
"136 0 LINE",
"8 0 LINE",
"8 42 LINE",
"94 42 LINE",
"94 43 LINE",
"8 43 LINE",
"8 128 LINE",
"50 128 LINE",
"50 85 LINE",
"94 85 LINE",
"94 128 LINE",
"136 128 LINE"
);
}
);
width = 144;
}
);
unicode = 0059;
},
{
glyphname = zero;
lastChange = "2013-06-11 19:26:22 +0200";
layers = (
{
components = (
{
name = O;
transform = "{1, 0, 0, 1, 0, 0}";
}
);
layerId = "940E2F63-624A-4C3D-A909-721782B4CF41";
name = Regular;
paths = (
{
closed = 1;
nodes = (
"53 45 LINE",
"91 45 LINE",
"91 83 LINE",
"53 83 LINE"
);
},
{
closed = 1;
nodes = (
"93 85 LINE",
"93 43 LINE",
"51 43 LINE",
"51 85 LINE"
);
}
);
width = 144;
}
);
unicode = 0030;
},
{
glyphname = one;
lastChange = "2013-06-11 19:26:26 +0200";
layers = (
{
layerId = "940E2F63-624A-4C3D-A909-721782B4CF41";
name = Regular;
paths = (
{
closed = 1;
nodes = (
"91 40 LINE",
"91 126 LINE",
"10 126 LINE",
"10 88 LINE",
"53 88 LINE",
"53 40 LINE",
"10 40 LINE",
"10 2 LINE",
"134 2 LINE",
"134 40 LINE"
);
},
{
closed = 1;
nodes = (
"136 0 LINE",
"8 0 LINE",
"8 42 LINE",
"51 42 LINE",
"51 86 LINE",
"8 86 LINE",
"8 128 LINE",
"93 128 LINE",
"93 42 LINE",
"136 42 LINE"
);
}
);
width = 144;
}
);
unicode = 0031;
},
{
glyphname = four;
lastChange = "2013-06-11 19:26:30 +0200";
layers = (
{
layerId = "940E2F63-624A-4C3D-A909-721782B4CF41";
name = Regular;
paths = (
{
closed = 1;
nodes = (
"96 126 LINE",
"96 83 LINE",
"48 83 LINE",
"48 126 LINE",
"10 126 LINE",
"10 45 LINE",
"96 45 LINE",
"96 2 LINE",
"134 2 LINE",
"134 126 LINE"
);
},
{
closed = 1;
nodes = (
"136 0 LINE",
"94 0 LINE",
"94 43 LINE",
"8 43 LINE",
"8 128 LINE",
"50 128 LINE",
"50 85 LINE",
"94 85 LINE",
"94 128 LINE",
"136 128 LINE"
);
}
);
width = 144;
}
);
unicode = 0034;
},
{
glyphname = seven;
lastChange = "2013-06-11 19:26:33 +0200";
layers = (
{
layerId = "940E2F63-624A-4C3D-A909-721782B4CF41";
name = Regular;
paths = (
{
closed = 1;
nodes = (
"10 126 LINE",
"10 88 LINE",
"96 88 LINE",
"96 83 LINE",
"53 83 LINE",
"53 2 LINE",
"91 2 LINE",
"91 45 LINE",
"134 45 LINE",
"134 126 LINE"
);
},
{
closed = 1;
nodes = (
"136 43 LINE",
"93 43 LINE",
"93 0 LINE",
"51 0 LINE",
"51 85 LINE",
"94 85 LINE",
"94 86 LINE",
"8 86 LINE",
"8 128 LINE",
"136 128 LINE"
);
}
);
width = 144;
}
);
unicode = 0037;
},
{
glyphname = eight;
lastChange = "2013-06-11 19:26:35 +0200";
layers = (
{
layerId = "940E2F63-624A-4C3D-A909-721782B4CF41";
name = Regular;
paths = (
{
closed = 1;
nodes = (
"10 126 LINE",
"10 2 LINE",
"134 2 LINE",
"134 126 LINE"
);
},
{
closed = 1;
nodes = (
"136 0 LINE",
"8 0 LINE",
"8 128 LINE",
"136 128 LINE"
);
},
{
closed = 1;
nodes = (
"96 83 LINE",
"48 83 LINE",
"48 88 LINE",
"96 88 LINE"
);
},
{
closed = 1;
nodes = (
"50 86 LINE",
"50 85 LINE",
"94 85 LINE",
"94 86 LINE"
);
},
{
closed = 1;
nodes = (
"96 40 LINE",
"48 40 LINE",
"48 45 LINE",
"96 45 LINE"
);
},
{
closed = 1;
nodes = (
"50 43 LINE",
"50 42 LINE",
"94 42 LINE",
"94 43 LINE"
);
}
);
width = 144;
}
);
unicode = 0038;
},
{
glyphname = asterisk;
lastChange = "2013-06-11 19:26:39 +0200";
layers = (
{
components = (
{
name = plus;
transform = "{1, 0, 0, 1, 0, 0}";
}
);
layerId = "940E2F63-624A-4C3D-A909-721782B4CF41";
name = Regular;
paths = (
{
closed = 1;
nodes = (
"48 126 LINE",
"10 126 LINE",
"10 88 LINE",
"48 88 LINE"
);
},
{
closed = 1;
nodes = (
"8 86 LINE",
"8 128 LINE",
"50 128 LINE",
"50 86 LINE"
);
},
{
closed = 1;
nodes = (
"96 126 LINE",
"96 88 LINE",
"134 88 LINE",
"134 126 LINE"
);
},
{
closed = 1;
nodes = (
"136 86 LINE",
"94 86 LINE",
"94 128 LINE",
"136 128 LINE"
);
},
{
closed = 1;
nodes = (
"10 2 LINE",
"48 2 LINE",
"48 40 LINE",
"10 40 LINE"
);
},
{
closed = 1;
nodes = (
"50 42 LINE",
"50 0 LINE",
"8 0 LINE",
"8 42 LINE"
);
},
{
closed = 1;
nodes = (
"96 2 LINE",
"134 2 LINE",
"134 40 LINE",
"96 40 LINE"
);
},
{
closed = 1;
nodes = (
"136 42 LINE",
"136 0 LINE",
"94 0 LINE",
"94 42 LINE"
);
}
);
width = 144;
}
);
unicode = 002A;
},
{
glyphname = backslash;
lastChange = "2013-06-11 19:26:41 +0200";
layers = (
{
layerId = "940E2F63-624A-4C3D-A909-721782B4CF41";
name = Regular;
paths = (
{
closed = 1;
nodes = (
"10 2 LINE",
"48 2 LINE",
"48 126 LINE",
"10 126 LINE"
);
},
{
closed = 1;
nodes = (
"50 128 LINE",
"50 0 LINE",
"8 0 LINE",
"8 128 LINE"
);
},
{
closed = 1;
nodes = (
"53 2 LINE",
"91 2 LINE",
"91 126 LINE",
"53 126 LINE"
);
},
{
closed = 1;
nodes = (
"93 128 LINE",
"93 0 LINE",
"51 0 LINE",
"51 128 LINE"
);
},
{
closed = 1;
nodes = (
"96 2 LINE",
"134 2 LINE",
"134 126 LINE",
"96 126 LINE"
);
},
{
closed = 1;
nodes = (
"136 128 LINE",
"136 0 LINE",
"94 0 LINE",
"94 128 LINE"
);
}
);
width = 144;
}
);
unicode = 005C;
},
{
glyphname = bullet;
lastChange = "2013-06-11 19:26:42 +0200";
layers = (
{
layerId = "940E2F63-624A-4C3D-A909-721782B4CF41";
name = Regular;
paths = (
{
closed = 1;
nodes = (
"10 126 LINE",
"10 88 LINE",
"134 88 LINE",
"134 126 LINE"
);
},
{
closed = 1;
nodes = (
"136 86 LINE",
"8 86 LINE",
"8 128 LINE",
"136 128 LINE"
);
},
{
closed = 1;
nodes = (
"10 83 LINE",
"10 45 LINE",
"134 45 LINE",
"134 83 LINE"
);
},
{
closed = 1;
nodes = (
"136 43 LINE",
"8 43 LINE",
"8 85 LINE",
"136 85 LINE"
);
},
{
closed = 1;
nodes = (
"10 40 LINE",
"10 2 LINE",
"134 2 LINE",
"134 40 LINE"
);
},
{
closed = 1;
nodes = (
"136 0 LINE",
"8 0 LINE",
"8 42 LINE",
"136 42 LINE"
);
}
);
width = 144;
}
);
unicode = 2022;
},
{
glyphname = comma;
lastChange = "2013-06-11 19:26:46 +0200";
layers = (
{
layerId = "940E2F63-624A-4C3D-A909-721782B4CF41";
name = Regular;
paths = (
{
closed = 1;
nodes = (
"10 2 LINE",
"134 2 LINE",
"134 126 LINE",
"10 126 LINE"
);
},
{
closed = 1;
nodes = (
"136 128 LINE",
"136 0 LINE",
"8 0 LINE",
"8 128 LINE"
);
}
);
width = 144;
}
);
unicode = 002C;
},
{
glyphname = ellipsis;
lastChange = "2013-06-11 19:26:50 +0200";
layers = (
{
layerId = "940E2F63-624A-4C3D-A909-721782B4CF41";
name = Regular;
paths = (
{
closed = 1;
nodes = (
"48 40 LINE",
"10 40 LINE",
"10 2 LINE",
"48 2 LINE"
);
},
{
closed = 1;
nodes = (
"8 0 LINE",
"8 42 LINE",
"50 42 LINE",
"50 0 LINE"
);
},
{
closed = 1;
nodes = (
"10 126 LINE",
"10 88 LINE",
"134 88 LINE",
"134 126 LINE"
);
},
{
closed = 1;
nodes = (
"136 86 LINE",
"8 86 LINE",
"8 128 LINE",
"136 128 LINE"
);
},
{
closed = 1;
nodes = (
"10 83 LINE",
"10 45 LINE",
"134 45 LINE",
"134 83 LINE"
);
},
{
closed = 1;
nodes = (
"136 43 LINE",
"8 43 LINE",
"8 85 LINE",
"136 85 LINE"
);
},
{
closed = 1;
nodes = (
"91 40 LINE",
"53 40 LINE",
"53 2 LINE",
"91 2 LINE"
);
},
{
closed = 1;
nodes = (
"51 0 LINE",
"51 42 LINE",
"93 42 LINE",
"93 0 LINE"
);
},
{
closed = 1;
nodes = (
"134 40 LINE",
"96 40 LINE",
"96 2 LINE",
"134 2 LINE"
);
},
{
closed = 1;
nodes = (
"94 0 LINE",
"94 42 LINE",
"136 42 LINE",
"136 0 LINE"
);
}
);
width = 144;
}
);
unicode = 2026;
},
{
glyphname = exclam;
lastChange = "2013-06-11 19:26:53 +0200";
layers = (
{
layerId = "940E2F63-624A-4C3D-A909-721782B4CF41";
name = Regular;
paths = (
{
closed = 1;
nodes = (
"134 126 LINE",
"96 126 LINE",
"96 45 LINE",
"134 45 LINE"
);
},
{
closed = 1;
nodes = (
"94 43 LINE",
"94 128 LINE",
"136 128 LINE",
"136 43 LINE"
);
},
{
closed = 1;
nodes = (
"91 126 LINE",
"53 126 LINE",
"53 45 LINE",
"91 45 LINE"
);
},
{
closed = 1;
nodes = (
"51 43 LINE",
"51 128 LINE",
"93 128 LINE",
"93 43 LINE"
);
},
{
closed = 1;
nodes = (
"48 126 LINE",
"10 126 LINE",
"10 45 LINE",
"48 45 LINE"
);
},
{
closed = 1;
nodes = (
"8 43 LINE",
"8 128 LINE",
"50 128 LINE",
"50 43 LINE"
);
},
{
closed = 1;
nodes = (
"48 40 LINE",
"10 40 LINE",
"10 2 LINE",
"48 2 LINE"
);
},
{
closed = 1;
nodes = (
"8 0 LINE",
"8 42 LINE",
"50 42 LINE",
"50 0 LINE"
);
},
{
closed = 1;
nodes = (
"134 40 LINE",
"96 40 LINE",
"96 2 LINE",
"134 2 LINE"
);
},
{
closed = 1;
nodes = (
"94 0 LINE",
"94 42 LINE",
"136 42 LINE",
"136 0 LINE"
);
},
{
closed = 1;
nodes = (
"91 40 LINE",
"53 40 LINE",
"53 2 LINE",
"91 2 LINE"
);
},
{
closed = 1;
nodes = (
"51 0 LINE",
"51 42 LINE",
"93 42 LINE",
"93 0 LINE"
);
}
);
width = 144;
}
);
unicode = 0021;
},
{
glyphname = numbersign;
lastChange = "2013-06-11 19:26:57 +0200";
layers = (
{
layerId = "940E2F63-624A-4C3D-A909-721782B4CF41";
name = Regular;
paths = (
{
closed = 1;
nodes = (
"10 126 LINE",
"10 2 LINE",
"134 2 LINE",
"134 126 LINE"
);
},
{
closed = 1;
nodes = (
"136 0 LINE",
"8 0 LINE",
"8 128 LINE",
"136 128 LINE"
);
},
{
closed = 1;
nodes = (
"53 45 LINE",
"53 40 LINE",
"48 40 LINE",
"48 45 LINE"
);
},
{
closed = 1;
nodes = (
"50 42 LINE",
"51 42 LINE",
"51 43 LINE",
"50 43 LINE"
);
},
{
closed = 1;
nodes = (
"96 45 LINE",
"96 40 LINE",
"91 40 LINE",
"91 45 LINE"
);
},
{
closed = 1;
nodes = (
"93 42 LINE",
"94 42 LINE",
"94 43 LINE",
"93 43 LINE"
);
},
{
closed = 1;
nodes = (
"53 88 LINE",
"53 83 LINE",
"48 83 LINE",
"48 88 LINE"
);
},
{
closed = 1;
nodes = (
"50 85 LINE",
"51 85 LINE",
"51 86 LINE",
"50 86 LINE"
);
},
{
closed = 1;
nodes = (
"96 88 LINE",
"96 83 LINE",
"91 83 LINE",
"91 88 LINE"
);
},
{
closed = 1;
nodes = (
"93 85 LINE",
"94 85 LINE",
"94 86 LINE",
"93 86 LINE"
);
}
);
width = 144;
}
);
unicode = 0023;
},
{
glyphname = question;
lastChange = "2013-06-11 19:27:03 +0200";
layers = (
{
layerId = "940E2F63-624A-4C3D-A909-721782B4CF41";
name = Regular;
paths = (
{
closed = 1;
nodes = (
"10 126 LINE",
"10 88 LINE",
"96 88 LINE",
"96 83 LINE",
"53 83 LINE",
"53 45 LINE",
"134 45 LINE",
"134 126 LINE"
);
},
{
closed = 1;
nodes = (
"136 43 LINE",
"51 43 LINE",
"51 85 LINE",
"94 85 LINE",
"94 86 LINE",
"8 86 LINE",
"8 128 LINE",
"136 128 LINE"
);
},
{
closed = 1;
nodes = (
"91 40 LINE",
"53 40 LINE",
"53 2 LINE",
"91 2 LINE"
);
},
{
closed = 1;
nodes = (
"51 0 LINE",
"51 42 LINE",
"93 42 LINE",
"93 0 LINE"
);
}
);
width = 144;
}
);
unicode = 003F;
},
{
glyphname = braceleft;
lastChange = "2013-06-11 19:27:08 +0200";
layers = (
{
layerId = "940E2F63-624A-4C3D-A909-721782B4CF41";
name = Regular;
paths = (
{
closed = 1;
nodes = (
"134 88 LINE",
"134 126 LINE",
"53 126 LINE",
"53 83 LINE",
"10 83 LINE",
"10 45 LINE",
"53 45 LINE",
"53 2 LINE",
"134 2 LINE",
"134 40 LINE",
"91 40 LINE",
"91 88 LINE"
);
},
{
closed = 1;
nodes = (
"93 42 LINE",
"136 42 LINE",
"136 0 LINE",
"51 0 LINE",
"51 43 LINE",
"8 43 LINE",
"8 85 LINE",
"51 85 LINE",
"51 128 LINE",
"136 128 LINE",
"136 86 LINE",
"93 86 LINE"
);
}
);
width = 144;
}
);
unicode = 007B;
},
{
glyphname = divide;
lastChange = "2013-11-07 20:10:55 +0100";
layers = (
{
layerId = "940E2F63-624A-4C3D-A909-721782B4CF41";
name = Regular;
paths = (
{
closed = 1;
nodes = (
"53 40 LINE",
"53 2 LINE",
"91 2 LINE",
"91 40 LINE"
);
},
{
closed = 1;
nodes = (
"93 0 LINE",
"51 0 LINE",
"51 42 LINE",
"93 42 LINE"
);
},
{
closed = 1;
nodes = (
"53 88 LINE",
"91 88 LINE",
"91 126 LINE",
"53 126 LINE"
);
},
{
closed = 1;
nodes = (
"93 128 LINE",
"93 86 LINE",
"51 86 LINE",
"51 128 LINE"
);
},
{
closed = 1;
nodes = (
"10 83 LINE",
"10 45 LINE",
"134 45 LINE",
"134 83 LINE"
);
},
{
closed = 1;
nodes = (
"136 43 LINE",
"8 43 LINE",
"8 85 LINE",
"136 85 LINE"
);
}
);
width = 144;
}
);
unicode = 00F7;
},
{
glyphname = notequal;
lastChange = "2013-06-11 19:27:30 +0200";
layers = (
{
layerId = "940E2F63-624A-4C3D-A909-721782B4CF41";
name = Regular;
paths = (
{
closed = 1;
nodes = (
"10 126 LINE",
"10 2 LINE",
"134 2 LINE",
"134 126 LINE"
);
},
{
closed = 1;
nodes = (
"136 0 LINE",
"8 0 LINE",
"8 128 LINE",
"136 128 LINE"
);
},
{
closed = 1;
nodes = (
"53 45 LINE",
"53 40 LINE",
"48 40 LINE",
"48 45 LINE"
);
},
{
closed = 1;
nodes = (
"50 42 LINE",
"51 42 LINE",
"51 43 LINE",
"50 43 LINE"
);
},
{
closed = 1;
nodes = (
"96 45 LINE",
"96 40 LINE",
"91 40 LINE",
"91 45 LINE"
);
},
{
closed = 1;
nodes = (
"93 42 LINE",
"94 42 LINE",
"94 43 LINE",
"93 43 LINE"
);
},
{
closed = 1;
nodes = (
"53 88 LINE",
"53 83 LINE",
"48 83 LINE",
"48 88 LINE"
);
},
{
closed = 1;
nodes = (
"50 85 LINE",
"51 85 LINE",
"51 86 LINE",
"50 86 LINE"
);
},
{
closed = 1;
nodes = (
"96 88 LINE",
"96 83 LINE",
"91 83 LINE",
"91 88 LINE"
);
},
{
closed = 1;
nodes = (
"93 85 LINE",
"94 85 LINE",
"94 86 LINE",
"93 86 LINE"
);
}
);
width = 144;
}
);
unicode = 2260;
},
{
glyphname = plus;
lastChange = "2013-06-11 19:27:18 +0200";
layers = (
{
layerId = "940E2F63-624A-4C3D-A909-721782B4CF41";
name = Regular;
paths = (
{
closed = 1;
nodes = (
"134 83 LINE",
"91 83 LINE",
"91 126 LINE",
"53 126 LINE",
"53 83 LINE",
"10 83 LINE",
"10 45 LINE",
"53 45 LINE",
"53 2 LINE",
"91 2 LINE",
"91 45 LINE",
"134 45 LINE"
);
},
{
closed = 1;
nodes = (
"93 43 LINE",
"93 0 LINE",
"51 0 LINE",
"51 43 LINE",
"8 43 LINE",
"8 85 LINE",
"51 85 LINE",
"51 128 LINE",
"93 128 LINE",
"93 85 LINE",
"136 85 LINE",
"136 43 LINE"
);
}
);
width = 144;
}
);
unicode = 002B;
},
{
glyphname = ampersand;
lastChange = "2013-06-11 19:27:39 +0200";
layers = (
{
layerId = "940E2F63-624A-4C3D-A909-721782B4CF41";
name = Regular;
paths = (
{
closed = 1;
nodes = (
"53 126 LINE",
"53 83 LINE",
"10 83 LINE",
"10 2 LINE",
"134 2 LINE",
"134 40 LINE",
"48 40 LINE",
"48 45 LINE",
"134 45 LINE",
"134 126 LINE"
);
},
{
closed = 1;
nodes = (
"136 43 LINE",
"50 43 LINE",
"50 42 LINE",
"136 42 LINE",
"136 0 LINE",
"8 0 LINE",
"8 85 LINE",
"51 85 LINE",
"51 128 LINE",
"136 128 LINE"
);
},
{
closed = 1;
nodes = (
"96 88 LINE",
"96 83 LINE",
"91 83 LINE",
"91 88 LINE"
);
},
{
closed = 1;
nodes = (
"93 85 LINE",
"94 85 LINE",
"94 86 LINE",
"93 86 LINE"
);
}
);
width = 144;
}
);
unicode = 0026;
},
{
glyphname = degree;
lastChange = "2013-06-11 19:27:41 +0200";
layers = (
{
layerId = "940E2F63-624A-4C3D-A909-721782B4CF41";
name = Regular;
paths = (
{
closed = 1;
nodes = (
"91 126 LINE",
"10 126 LINE",
"10 45 LINE",
"91 45 LINE"
);
},
{
closed = 1;
nodes = (
"8 43 LINE",
"8 128 LINE",
"93 128 LINE",
"93 43 LINE"
);
},
{
closed = 1;
nodes = (
"96 40 LINE",
"53 40 LINE",
"53 2 LINE",
"134 2 LINE",
"134 83 LINE",
"96 83 LINE"
);
},
{
closed = 1;
nodes = (
"136 85 LINE",
"136 0 LINE",
"51 0 LINE",
"51 42 LINE",
"94 42 LINE",
"94 85 LINE"
);
},
{
closed = 1;
nodes = (
"53 88 LINE",
"53 83 LINE",
"48 83 LINE",
"48 88 LINE"
);
},
{
closed = 1;
nodes = (
"50 85 LINE",
"51 85 LINE",
"51 86 LINE",
"50 86 LINE"
);
}
